<svg width="30" height="13" viewBox="0 0 30 13" fill="none" xmlns="http://www.w3.org/2000/svg">
<path d="M5.08084 12.8331C5.28273 13.0733 5.59369 13.0517 5.77539 12.7848C5.95709 12.518 5.94073 12.107 5.73883 11.8669L1.77342 7.15L29.5082 7.15C29.7798 7.15 30 6.85898 30 6.5C30 6.14102 29.7798 5.85 29.5082 5.85L1.77342 5.85L5.73883 1.13315C5.94073 0.892998 5.95709 0.48201 5.77539 0.215179C5.59369 -0.0516529 5.28273 -0.0732832 5.08084 0.166865L0.162804 6.01686C0.0591755 6.14013 0 6.31573 0 6.5C0 6.68427 0.0591755 6.85987 0.162804 6.98314L5.08084 12.8331Z" fill="#D7D7D7"/>
</svg>
