<svg width="30" height="13" viewBox="0 0 30 13" fill="none" xmlns="http://www.w3.org/2000/svg">
<path d="M24.9192 0.166864C24.7173 -0.0732839 24.4063 -0.051653 24.2246 0.215178C24.0429 0.48201 24.0593 0.892998 24.2612 1.13315L28.2266 5.85H0.491803C0.220188 5.85 0 6.14102 0 6.5C0 6.85898 0.220187 7.15 0.491803 7.15H28.2266L24.2612 11.8669C24.0593 12.107 24.0429 12.518 24.2246 12.7848C24.4063 13.0517 24.7173 13.0733 24.9192 12.8331L29.8372 6.98314C29.9408 6.85987 30 6.68427 30 6.5C30 6.31573 29.9408 6.14013 29.8372 6.01686L24.9192 0.166864Z" fill="#D7D7D7"/>
</svg>
