<svg width="70" height="70" viewBox="0 0 70 70" fill="none" xmlns="http://www.w3.org/2000/svg">
<g clip-path="url(#clip0_110_342)">
<path d="M35.8248 27.5754L31.9585 23.709C28.666 20.4346 26.8205 15.9788 26.8333 11.3354C26.8333 10.6911 26.311 10.1687 25.6667 10.1687C25.0224 10.1687 24.5 10.6911 24.5 11.3354C24.4857 16.5981 26.5774 21.6477 30.3088 25.3587L34.1752 29.225C34.6308 29.6805 35.3693 29.6805 35.8248 29.225C36.2803 28.7695 36.2803 28.031 35.8248 27.5754Z" fill="#57ADE4"/>
<path d="M39.6912 44.6413L35.8248 40.775C35.3773 40.3115 34.6386 40.2987 34.1752 40.7464C33.7117 41.1941 33.6989 41.9326 34.1466 42.3961C34.1559 42.4058 34.1655 42.4153 34.1752 42.4246L38.0415 46.291C41.334 49.5654 43.1795 54.0212 43.1667 58.6646C43.1667 59.3089 43.689 59.8313 44.3333 59.8313C44.9776 59.8313 45.5 59.3089 45.5 58.6646C45.5143 53.402 43.4226 48.3523 39.6912 44.6413Z" fill="#57ADE4"/>
<path d="M56 67.6667H52.5V64.1667C52.5 63.5224 51.9776 63 51.3333 63H50.1667V58.6647C50.1842 52.164 47.6006 45.9264 42.9917 41.342L36.6497 35L42.9917 28.658C47.6006 24.0736 50.1842 17.836 50.1667 11.3353V7H51.3333C51.9776 7 52.5 6.47762 52.5 5.83333V2.33333H56C56.6443 2.33333 57.1667 1.81096 57.1667 1.16667C57.1667 0.522375 56.6443 0 56 0H14C13.3557 0 12.8333 0.522375 12.8333 1.16667C12.8333 1.81096 13.3557 2.33333 14 2.33333H17.5V5.83333C17.5 6.47762 18.0224 7 18.6667 7H19.8333V11.3353C19.8158 17.836 22.3994 24.0736 27.0083 28.658L33.3503 35L27.0083 41.342C22.3994 45.9264 19.8158 52.164 19.8333 58.6647V63H18.6667C18.0224 63 17.5 63.5224 17.5 64.1667V67.6667H14C13.3557 67.6667 12.8333 68.189 12.8333 68.8333C12.8333 69.4776 13.3557 70 14 70H56C56.6443 70 57.1667 69.4776 57.1667 68.8333C57.1667 68.189 56.6443 67.6667 56 67.6667ZM19.8333 2.33333H50.1667V4.66667H19.8333V2.33333ZM28.658 27.0083C24.4883 22.8602 22.1509 17.2168 22.1667 11.3353V7H47.8333V11.3353C47.8491 17.2168 45.5117 22.8602 41.342 27.0083L35 33.3503L28.658 27.0083ZM22.1667 58.6647C22.1509 52.7832 24.4883 47.1397 28.658 42.9917L35 36.6497L41.342 42.9917C45.5117 47.1397 47.8491 52.7832 47.8333 58.6647V63H22.1667V58.6647ZM50.1667 67.6667H19.8333V65.3333H50.1667V67.6667Z" fill="#57ADE4"/>
</g>
<defs>
<clipPath id="clip0_110_342">
<rect width="70" height="70" fill="white"/>
</clipPath>
</defs>
</svg>
