<svg width="70" height="70" viewBox="0 0 70 70" fill="none" xmlns="http://www.w3.org/2000/svg">
<path d="M68.3014 31.8336L62.6019 28.9844L68.3014 26.1407C68.4834 26.05 68.6365 25.9103 68.7435 25.7374C68.8506 25.5645 68.9073 25.3651 68.9073 25.1618C68.9073 24.9584 68.8506 24.7591 68.7435 24.5861C68.6365 24.4132 68.4834 24.2736 68.3014 24.1829L35.4889 7.77661C35.3371 7.70075 35.1697 7.66125 35 7.66125C34.8303 7.66125 34.6629 7.70075 34.5111 7.77661L1.69858 24.1829C1.51657 24.2736 1.36346 24.4132 1.25643 24.5861C1.14941 24.7591 1.09271 24.9584 1.09271 25.1618C1.09271 25.3651 1.14941 25.5645 1.25643 25.7374C1.36346 25.9103 1.51657 26.05 1.69858 26.1407L7.39811 28.9844L1.69858 31.8336C1.51676 31.9245 1.36386 32.0642 1.25702 32.2371C1.15018 32.41 1.09364 32.6093 1.09373 32.8125V37.1875C1.09262 37.3917 1.14868 37.5921 1.25558 37.7661C1.36247 37.9401 1.51593 38.0807 1.69858 38.1719L7.39811 41.0157L1.69858 43.8594C1.51657 43.9501 1.36346 44.0898 1.25643 44.2627C1.14941 44.4356 1.09271 44.635 1.09271 44.8383C1.09271 45.0417 1.14941 45.241 1.25643 45.4139C1.36346 45.5869 1.51657 45.7265 1.69858 45.8172L34.5111 62.2235C34.6629 62.2993 34.8303 62.3388 35 62.3388C35.1697 62.3388 35.3371 62.2993 35.4889 62.2235L68.3014 45.8172C68.4834 45.7265 68.6365 45.5869 68.7435 45.4139C68.8506 45.241 68.9073 45.0417 68.9073 44.8383C68.9073 44.635 68.8506 44.4356 68.7435 44.2627C68.6365 44.0898 68.4834 43.9501 68.3014 43.8594L62.6019 41.0157L68.3014 38.1719C68.484 38.0807 68.6375 37.9401 68.7444 37.7661C68.8513 37.5921 68.9073 37.3917 68.9062 37.1875V32.8125C68.9063 32.6093 68.8498 32.41 68.743 32.2371C68.6361 32.0642 68.4832 31.9245 68.3014 31.8336ZM35 9.97286L65.3669 25.1563L35 40.3397L4.63311 25.1563L35 9.97286ZM34.5111 42.5469C34.6629 42.6228 34.8303 42.6623 35 42.6623C35.1697 42.6623 35.3371 42.6228 35.4889 42.5469L60.1562 30.2072L65.3669 32.8125L35 47.996L4.63311 32.8125L9.84373 30.2072L34.5111 42.5469ZM3.28123 34.5822L33.9062 49.8947V51.8241L3.28123 36.5116V34.5822ZM65.3669 44.8438L35 60.0272L4.63311 44.8438L9.84373 42.2385L34.5111 54.5782C34.6629 54.654 34.8303 54.6935 35 54.6935C35.1697 54.6935 35.3371 54.654 35.4889 54.5782L60.1562 42.2385L65.3669 44.8438ZM36.0937 51.8241V49.8947L66.7187 34.5822V36.5116L36.0937 51.8241Z" fill="#57ADE4"/>
</svg>
