<svg width="70" height="70" viewBox="0 0 70 70" fill="none" xmlns="http://www.w3.org/2000/svg">
<g clip-path="url(#clip0_110_378)">
<path d="M64.2268 10.3852C64.2005 9.95583 63.8674 9.61047 63.4406 9.5676C49.5438 8.17881 35.5764 0.197269 35.4363 0.116822C35.1644 -0.0387779 34.832 -0.0387779 34.5618 0.116822C34.4228 0.197269 20.4666 8.17796 6.55844 9.5676C6.1316 9.61047 5.79854 9.95583 5.77309 10.3852C5.75038 10.756 3.86934 47.7519 34.4882 69.8357C34.6412 69.9458 34.8206 70.0002 34.9998 70.0002C35.1791 70.0002 35.3583 69.946 35.5113 69.8357C66.1305 47.7518 64.2495 10.755 64.2268 10.3852ZM34.9991 68.0438C8.04697 48.2145 7.40954 16.449 7.49597 11.2247C20.2733 9.74335 32.5154 3.2553 34.9991 1.87795C37.4827 3.2553 49.7257 9.74318 62.5022 11.2247C62.5932 16.4471 61.9749 48.1986 34.9991 68.0438Z" fill="#57ADE4"/>
<path d="M57.6654 15.528C57.6402 15.0986 57.3069 14.7533 56.8801 14.7104C46.2445 13.6478 35.5439 7.53417 35.4365 7.47302C35.1646 7.31742 34.8322 7.31742 34.562 7.47302C34.4552 7.53417 23.7653 13.647 13.1182 14.7104C12.6914 14.7533 12.3583 15.0986 12.3329 15.528C12.3146 15.8139 10.8637 44.3613 34.4875 61.4001C34.6406 61.5103 34.8199 61.5646 34.9991 61.5646C35.1784 61.5646 35.3576 61.5104 35.5106 61.4001C59.1336 44.3613 57.6829 15.8141 57.6654 15.528ZM34.9991 59.6074C14.7596 44.6254 14.0129 20.831 14.06 16.3658C23.6936 15.2026 32.8881 10.3948 34.9991 9.23245C37.1102 10.3946 46.3046 15.2026 55.9381 16.3658C55.9854 20.831 55.2387 44.6254 34.9991 59.6074Z" fill="#57ADE4"/>
</g>
<defs>
<clipPath id="clip0_110_378">
<rect width="70" height="70" fill="white"/>
</clipPath>
</defs>
</svg>
