<svg width="20" height="21" viewBox="0 0 20 21" fill="none" xmlns="http://www.w3.org/2000/svg">
<path d="M1.58579 2.08579C1.21071 2.46086 1 2.96957 1 3.5V4.5C1 12.784 7.716 19.5 16 19.5H17C17.5304 19.5 18.0391 19.2893 18.4142 18.9142C18.7893 18.5391 19 18.0304 19 17.5V14.221C19.0001 14.011 18.934 13.8064 18.8112 13.636C18.6885 13.4657 18.5152 13.3383 18.316 13.272L13.823 11.774C13.5947 11.6981 13.3466 11.7071 13.1244 11.7993C12.9021 11.8915 12.7205 12.0607 12.613 12.276L11.483 14.533C9.03446 13.4267 7.07332 11.4655 5.967 9.017L8.224 7.887C8.43925 7.77945 8.60851 7.5979 8.70072 7.37564C8.79293 7.15339 8.8019 6.90534 8.726 6.677L7.228 2.184C7.16171 1.98496 7.03449 1.8118 6.86436 1.68905C6.69422 1.5663 6.48979 1.50016 6.28 1.5H3C2.46957 1.5 1.96086 1.71071 1.58579 2.08579Z" stroke="#57ADE4" stroke-width="2" stroke-linecap="round" stroke-linejoin="round"/>
</svg>
